<?xml version="1.0" encoding="UTF-8" standalone="no"?>
<svg width="120px" height="120px" viewBox="0 0 120 120" version="1.1" xmlns="http://www.w3.org/2000/svg" xmlns:xlink="http://www.w3.org/1999/xlink">
    <!-- Generator: Sketch 3.8.3 (29802) - http://www.bohemiancoding.com/sketch -->
    <title>Imported Layers</title>
    <desc>Created with Sketch.</desc>
    <defs></defs>
    <g id="Symbols" stroke="none" stroke-width="1" fill="none" fill-rule="evenodd">
        <g id="Imported-Layers">
            <g id="Group" transform="translate(4.000000, 4.000000)">
                <path d="M112.60696,56.4457837 C112.60696,87.4697741 87.4591384,112.619477 56.4351481,112.619477 C25.4130399,112.619477 0.263336631,87.4697741 0.263336631,56.4457837 C0.263336631,25.4236756 25.4130399,0.273972301 56.4351481,0.273972301 C87.4591384,0.273972301 112.60696,25.4236756 112.60696,56.4457837" id="Fill-1" fill="#5094C3"></path>
                <path d="M77.568277,42.5157617 C76.2676899,33.1236783 68.3945265,26.0429131 59.2603018,26.0429131 C50.7641366,26.0429131 43.3859868,32.0207202 41.3174698,40.5808796 L39.2131914,40.0726907 C41.516981,30.5375615 49.760934,23.8765227 59.2603018,23.8765227 C69.4711341,23.8765227 78.2628018,31.7609792 79.7120812,42.2183771 L77.568277,42.5157617" id="Fill-2" fill="#FFFFFF"></path>
                <path d="M93.4369455,72.4104435 L92.0968325,70.710834 C96.467257,67.2626783 98.9762043,62.0735051 98.9762043,56.4721343 C98.9762043,46.5191609 90.9656417,38.4220179 81.1180704,38.4220179 C80.4367209,38.4220179 78.9272117,38.5537706 78.1442244,38.6478797 L77.8844834,36.4984289 C78.5620686,36.4174951 80.2597959,36.2575097 81.1180704,36.2575097 C92.1570623,36.2575097 101.140713,45.3258581 101.140713,56.4721343 C101.140713,62.7397972 98.3324984,68.5482079 93.4369455,72.4104435" id="Fill-3" fill="#FFFFFF"></path>
                <path d="M66.5857505,90.7410048 C63.4142754,90.7410048 60.8865063,89.1185647 58.6561217,87.6862249 C57.2576612,86.7903067 55.9382523,85.9433253 54.6621335,85.6252367 C53.2693195,85.2770332 52.4242202,85.6478228 51.0219954,86.2651782 C49.4654316,86.9484099 47.3348027,87.8857361 43.6099664,88.0476037 C35.87232,88.3901606 29.4089103,80.285489 28.1553777,74.3359147 C26.837851,68.081427 28.6372161,62.9468371 33.3577261,59.4855062 C36.713655,57.0254955 39.572688,57.5562706 42.6011173,58.1152783 C44.0955691,58.391959 45.6446041,58.6780505 47.4514979,58.6780505 C52.6274958,58.6780505 54.4701511,56.5718899 57.0487391,53.1331451 C59.5031032,49.8600322 59.8193096,42.74727 59.823074,42.6776293 L61.9857,42.7642096 C61.9725247,43.0822982 61.6412609,50.6185512 58.7803457,54.43185 C55.8761403,58.3053786 53.5177674,60.8444409 47.4514979,60.8444409 C45.4450929,60.8444409 43.7247794,60.5244701 42.2058593,60.2440251 C39.3223579,59.7094857 37.2387835,59.3236386 34.6376093,61.2321702 C30.5965665,64.1947232 29.1284653,68.4522167 30.2728314,73.8879556 C31.3174419,78.8493849 37.1258526,86.1785979 43.5177395,85.8868598 C46.8341425,85.7419319 48.6730334,84.9344762 50.1524277,84.2832416 C51.7202845,83.5943633 53.0716905,82.9958297 55.187262,83.5247226 C56.8078199,83.9293915 58.2721568,84.8704821 59.823074,85.8661558 C61.9010019,87.19874 64.0485704,88.5764966 66.5857505,88.5764966 C71.0032295,88.5764966 72.5861437,86.762074 74.1182391,85.0078813 C75.4094153,83.528487 76.7438817,81.9982738 79.4410471,81.9982738 C82.0968046,82.2109602 86.186784,82.2128424 87.2445698,81.5616078 C90.8564752,79.3387519 92.9099348,73.0823821 91.5547644,68.4352771 C89.4881296,61.3507476 85.5223741,57.8743592 79.7892506,58.152922 C74.3704514,58.3976055 73.31643,59.0488401 73.2731398,59.0751907 L72.8872927,58.4823036 L71.663875,57.6673193 C71.8859724,57.332291 72.5654397,56.3140311 79.689495,55.9902959 C86.4088814,55.6722073 91.2837303,59.775362 93.6326923,67.8292148 C95.2588967,73.4042351 92.8026504,80.6826292 88.3776428,83.404263 C86.3411229,84.6577956 80.5044794,84.2512445 79.3525846,84.1590176 C77.7282624,84.162782 76.8982205,85.1151656 75.7482079,86.4308102 C74.0730668,88.3506348 71.985728,90.7410048 66.5857505,90.7410048" id="Fill-4" fill="#FFFFFF"></path>
                <path d="M21.9084188,52.3501578 C19.8587236,47.5374208 20.0525883,43.0917092 20.0619992,42.9053732 C20.060117,33.5415225 27.7205939,25.8810456 37.1371457,25.8810456 C40.7415224,25.8810456 44.1896781,26.9915324 47.1051766,29.0920465 L45.8422331,30.8500036 C43.2956421,29.014877 40.2841524,28.0455538 37.1371457,28.0455538 C28.9138967,28.0455538 22.2246252,34.7367074 22.2246252,42.9580743 C22.2208608,43.0521833 22.0533467,47.1666311 23.8978842,51.5031763 L21.9084188,52.3501578" id="Fill-5" fill="#FFFFFF"></path>
                <path d="M26.339073,78.0889837 C17.7375056,78.0889837 10.7414386,69.837502 10.7414386,59.6981926 C10.7414386,52.0377157 14.6526108,45.3032719 20.7075873,42.5439945 L21.6053876,44.5127558 C16.4030392,46.8861862 12.9059468,52.9882171 12.9059468,59.6981926 C12.9059468,68.6460814 18.9308083,75.9225933 26.339073,75.9225933 C27.5511976,75.9225933 28.7539113,75.7287287 29.9095704,75.3428816 L30.5928022,77.3963411 C29.2150456,77.8555933 27.784588,78.0889837 26.339073,78.0889837" id="Fill-6" fill="#FFFFFF"></path>
                <path d="M65.9740417,84.017854 C65.6917145,84.017854 65.4150339,83.9086875 65.207994,83.7016476 C64.9821323,83.4757859 64.9727213,83.466375 63.1902959,78.2941414 C61.2252989,72.5948972 58.294743,69.7057493 54.4776798,69.7057493 C52.4468064,69.7057493 51.0219954,70.5847278 49.9830314,71.2284338 C49.4108484,71.584166 48.9948864,71.8382604 48.5356342,71.9154298 L48.179902,69.7810365 L48.356827,70.8482332 L48.1403762,69.7904474 C48.2551892,69.7528038 48.5826887,69.5495283 48.8443119,69.3876607 C49.9623274,68.6969002 51.8313332,67.5412411 54.4776798,67.5412411 C59.3186495,67.5412411 62.9399658,70.9216382 65.2362267,77.5883236 C65.4583241,78.2320295 65.6521887,78.7910372 65.821585,79.2785221 C66.9941838,75.9489439 69.5068955,71.3771261 74.5398477,70.8839946 L74.7506519,73.0390919 C68.5846268,73.6432721 67.058178,83.0071228 67.0431205,83.1012319 C66.9810085,83.5040186 66.6967992,83.8371647 66.3109521,83.965153 C66.1980212,84.0009144 66.0850904,84.017854 65.9740417,84.017854" id="Fill-7" fill="#FFFFFF"></path>
                <path d="M78.5394824,75.4068757 C75.8724318,75.4068757 73.7003949,73.2367209 73.7003949,70.5696704 C73.7003949,67.9026198 75.8724318,65.7324651 78.5394824,65.7324651 C81.206533,65.7324651 83.3766877,67.9026198 83.3766877,70.5696704 C83.3766877,73.2367209 81.206533,75.4068757 78.5394824,75.4068757 L78.5394824,75.4068757 Z M78.5394824,67.8969733 C77.0657346,67.8969733 75.8667853,69.0959226 75.8667853,70.5696704 C75.8667853,72.0434182 77.0657346,73.2423675 78.5394824,73.2423675 C80.0132302,73.2423675 81.2121795,72.0434182 81.2121795,70.5696704 C81.2121795,69.0959226 80.0132302,67.8969733 78.5394824,67.8969733 L78.5394824,67.8969733 Z" id="Fill-8" fill="#FFFFFF"></path>
                <path d="M68.3869978,64.5598663 C65.7199472,64.5598663 63.5479103,62.3897115 63.5479103,59.7207788 C63.5479103,57.0556104 65.7199472,54.8835735 68.3869978,54.8835735 C71.0540483,54.8835735 73.2242031,57.0556104 73.2242031,59.7207788 C73.2242031,62.3897115 71.0540483,64.5598663 68.3869978,64.5598663 L68.3869978,64.5598663 Z M68.3869978,57.0499639 C66.9113678,57.0499639 65.7143007,58.247031 65.7143007,59.7207788 C65.7143007,61.1964087 66.9113678,62.3934759 68.3869978,62.3934759 C69.8607455,62.3934759 71.0578127,61.1964087 71.0578127,59.7207788 C71.0578127,58.247031 69.8607455,57.0499639 68.3869978,57.0499639 L68.3869978,57.0499639 Z" id="Fill-9" fill="#FFFFFF"></path>
                <path d="M78.6787638,51.3469553 C76.0117132,51.3469553 73.8415585,49.1749183 73.8415585,46.5097499 C73.8415585,43.8426994 76.0117132,41.6706625 78.6787638,41.6706625 C81.3458144,41.6706625 83.5159691,43.8426994 83.5159691,46.5097499 C83.5159691,49.1749183 81.3458144,51.3469553 78.6787638,51.3469553 L78.6787638,51.3469553 Z M78.6787638,43.8370528 C77.205016,43.8370528 76.0060667,45.03412 76.0060667,46.5097499 C76.0060667,47.9834977 77.205016,49.1805649 78.6787638,49.1805649 C80.1525116,49.1805649 81.3514609,47.9834977 81.3514609,46.5097499 C81.3514609,45.03412 80.1525116,43.8370528 78.6787638,43.8370528 L78.6787638,43.8370528 Z" id="Fill-10" fill="#FFFFFF"></path>
                <path d="M61.4323388,43.6958893 C58.7652882,43.6958893 56.5932513,41.5257345 56.5932513,38.858684 C56.5932513,36.1916334 58.7652882,34.0214786 61.4323388,34.0214786 C64.0993893,34.0214786 66.2695441,36.1916334 66.2695441,38.858684 C66.2695441,41.5257345 64.0993893,43.6958893 61.4323388,43.6958893 L61.4323388,43.6958893 Z M61.4323388,36.1859869 C59.958591,36.1859869 58.7596417,37.3849362 58.7596417,38.858684 C58.7596417,40.3324317 59.958591,41.5313811 61.4323388,41.5313811 C62.9060865,41.5313811 64.1050359,40.3324317 64.1050359,38.858684 C64.1050359,37.3849362 62.9060865,36.1859869 61.4323388,36.1859869 L61.4323388,36.1859869 Z" id="Fill-11" fill="#FFFFFF"></path>
                <path d="M39.5952742,48.8436545 C36.9282236,48.8436545 34.7580688,46.6716175 34.7580688,44.004567 C34.7580688,41.3375164 36.9282236,39.1673616 39.5952742,39.1673616 C42.2623247,39.1673616 44.4324795,41.3375164 44.4324795,44.004567 C44.4324795,46.6716175 42.2623247,48.8436545 39.5952742,48.8436545 L39.5952742,48.8436545 Z M39.5952742,41.3318699 C38.1215264,41.3318699 36.9225771,42.5308192 36.9225771,44.004567 C36.9225771,45.4801969 38.1215264,46.6772641 39.5952742,46.6772641 C41.0690219,46.6772641 42.2679713,45.4801969 42.2679713,44.004567 C42.2679713,42.5308192 41.0690219,41.3318699 39.5952742,41.3318699 L39.5952742,41.3318699 Z" id="Fill-12" fill="#FFFFFF"></path>
                <path d="M24.5754693,60.1085081 C21.9084188,60.1085081 19.7363818,57.9383533 19.7363818,55.2713028 C19.7363818,52.6042522 21.9084188,50.4322153 24.5754693,50.4322153 C27.2425199,50.4322153 29.4126746,52.6042522 29.4126746,55.2713028 C29.4126746,57.9383533 27.2425199,60.1085081 24.5754693,60.1085081 L24.5754693,60.1085081 Z M24.5754693,52.5986057 C23.1017216,52.5986057 21.9027722,53.797555 21.9027722,55.2713028 C21.9027722,56.7450505 23.1017216,57.9439999 24.5754693,57.9439999 C26.0492171,57.9439999 27.2481664,56.7450505 27.2481664,55.2713028 C27.2481664,53.797555 26.0492171,52.5986057 24.5754693,52.5986057 L24.5754693,52.5986057 Z" id="Fill-13" fill="#FFFFFF"></path>
                <path d="M45.2982828,76.7996897 C42.6312322,76.7996897 40.4610775,74.6276527 40.4610775,71.9606022 C40.4610775,69.2935516 42.6312322,67.1233969 45.2982828,67.1233969 C47.9653333,67.1233969 50.1354881,69.2935516 50.1354881,71.9606022 C50.1354881,74.6276527 47.9653333,76.7996897 45.2982828,76.7996897 L45.2982828,76.7996897 Z M45.2982828,69.2879051 C43.824535,69.2879051 42.6255857,70.4868544 42.6255857,71.9606022 C42.6255857,73.4362321 43.824535,74.6332993 45.2982828,74.6332993 C46.7720305,74.6332993 47.9709799,73.4362321 47.9709799,71.9606022 C47.9709799,70.4868544 46.7720305,69.2879051 45.2982828,69.2879051 L45.2982828,69.2879051 Z" id="Fill-14" fill="#FFFFFF"></path>
            </g>
        </g>
    </g>
</svg>