<?xml version="1.0" encoding="utf-8"?>
<!-- Generator: Adobe Illustrator 18.1.0, SVG Export Plug-In . SVG Version: 6.00 Build 0)  -->
<svg version="1.1" id="Layer_1" xmlns="http://www.w3.org/2000/svg" xmlns:xlink="http://www.w3.org/1999/xlink" x="0px" y="0px"
	 viewBox="0 0 472.5 128.9" enable-background="new 0 0 472.5 128.9" xml:space="preserve">
<g>
	<g>
		<path fill="#FFFFFF" d="M63.8,128.9C28.6,128.9,0,100.3,0,65.2c0-13.1,3.9-25.7,11.4-36.4l1.2,0.9C5.4,40.1,1.5,52.4,1.5,65.2
			c0,34.3,27.9,62.2,62.2,62.2S126,99.5,126,65.2S98.1,2.9,63.8,2.9c-7.1,0-14,1.2-20.6,3.5L42.6,5c6.8-2.4,13.9-3.6,21.1-3.6
			c35.2,0,63.8,28.6,63.8,63.8S98.9,128.9,63.8,128.9z"/>
	</g>
	<g>
		<path fill="#FFFFFF" d="M240.8,128.9c-35.2,0-63.8-28.6-63.8-63.8s28.6-63.8,63.8-63.8s63.8,28.6,63.8,63.8
			S275.9,128.9,240.8,128.9z M240.8,2.9c-34.3,0-62.2,27.9-62.2,62.2s27.9,62.2,62.2,62.2S303,99.5,303,65.2S275.1,2.9,240.8,2.9z"
			/>
	</g>
	<g>
		<path fill="#FFFFFF" d="M408.8,128.9c-35.2,0-63.8-28.6-63.8-63.8s28.6-63.8,63.8-63.8s63.8,28.6,63.8,63.8
			S443.9,128.9,408.8,128.9z M408.8,2.9c-34.3,0-62.2,27.9-62.2,62.2s27.9,62.2,62.2,62.2S471,99.5,471,65.2S443.1,2.9,408.8,2.9z"
			/>
	</g>
	<g>
		<g>
			<g>
				<g>
					<g>
						<path fill="#FFFFFF" d="M73.1,118L72,95.8L90.7,108l-7.5,1.6l3.3,5.7l-4.8,2.8l-3.3-5.7L73.1,118z M78.6,109.8l3.5,6.1
							l2.2-1.3l-3.5-6.1l6-1.3l-13.2-8.6l0.8,15.7L78.6,109.8z"/>
					</g>
				</g>
			</g>
		</g>
	</g>
	<g>
		<g>
			<g>
				<g>
					<path fill="#FFFFFF" d="M88.9,84.6H33.7V46.3h55.2V84.6z M35.2,83.1h52.2V47.8H35.2V83.1z"/>
				</g>
				<g>
					<path fill="#FFFFFF" d="M84.6,80.3H38V50.6h46.6V80.3z M39.5,78.8h43.6V52.1H39.5V78.8z"/>
				</g>
				<g>
					<path fill="#FFFFFF" d="M74.3,65.5c-2.3,0-4.2-1.9-4.2-4.2s1.9-4.2,4.2-4.2c2.3,0,4.2,1.9,4.2,4.2S76.6,65.5,74.3,65.5z
						 M74.3,58.5c-1.5,0-2.7,1.2-2.7,2.7s1.2,2.7,2.7,2.7c1.5,0,2.7-1.2,2.7-2.7S75.8,58.5,74.3,58.5z"/>
				</g>
				<g>
					<polygon fill="#FFFFFF" points="83.9,72 65.9,72 58.9,62.7 54.2,69 46.9,59.3 39.4,69.3 38.2,68.4 46.9,56.8 54.2,66.5 
						58.9,60.2 66.6,70.5 83.9,70.5 					"/>
				</g>
			</g>
		</g>
		<g>
			<polygon fill="#FFFFFF" points="29.1,95.6 24.3,61.4 34.2,60.1 34.4,61.5 26,62.7 30.4,93.9 73.4,87.9 73.7,89.3 			"/>
		</g>
		<g>
			<polygon fill="#FFFFFF" points="96.7,93.8 49.7,84.7 50,83.2 95.5,92 101.5,61.1 88.2,58.5 88.5,57 103.2,59.9 			"/>
		</g>
	</g>
	<g>
		<g>
			<g>
				<g>
					<g>
						<g>
							<path fill="#FFFFFF" d="M43,45.1l-8-8c-2,0.6-4.2,0.9-6.3,0.9C17.1,38,7.5,29.5,7.5,19c0-10.5,9.5-19,21.3-19
								c11.7,0,21.3,8.5,21.3,19c0,5.4-2.6,10.5-7.1,14.1V45.1z M35.5,35.5l6,6v-9.1l0.3-0.2c4.3-3.3,6.8-8.1,6.8-13.2
								c0-9.7-8.9-17.5-19.8-17.5C17.9,1.5,9,9.4,9,19c0,9.7,8.9,17.5,19.8,17.5c2.1,0,4.2-0.3,6.3-0.9L35.5,35.5z"/>
						</g>
					</g>
				</g>
			</g>
		</g>
	</g>
	<g>
		<rect x="17.8" y="14.2" fill="#FFFFFF" width="21" height="2"/>
	</g>
	<g>
		<rect x="17.8" y="19.2" fill="#FFFFFF" width="21" height="2"/>
	</g>
	<g>
		<rect x="17.8" y="24.2" fill="#FFFFFF" width="21" height="2"/>
	</g>
	<g>
		<g>
			<polygon fill="#FFFFFF" points="58.6,37.2 58,26.5 68.9,26.2 68.4,36.8 66.9,36.8 67.3,27.8 59.6,28 60.1,37.1 			"/>
		</g>
		<g>
			<path fill="#FFFFFF" d="M65.4,39.1c-1.6,0-3-1.1-3-2.5c0-1.4,1.3-2.5,3-2.5s3,1.1,3,2.5C68.4,38,67.1,39.1,65.4,39.1z M65.4,35.6
				c-0.8,0-1.5,0.5-1.5,1c0,0.6,0.7,1,1.5,1s1.5-0.5,1.5-1C66.9,36,66.2,35.6,65.4,35.6z"/>
		</g>
		<g>
			<path fill="#FFFFFF" d="M57.2,39.3c-1.6,0-3-1.1-3-2.5c0-1.4,1.3-2.5,3-2.5s3,1.1,3,2.5C60.1,38.2,58.8,39.3,57.2,39.3z
				 M57.2,35.7c-0.8,0-1.5,0.5-1.5,1c0,0.6,0.7,1,1.5,1s1.5-0.5,1.5-1C58.6,36.2,58,35.7,57.2,35.7z"/>
		</g>
		<g>
			
				<rect x="62.5" y="25.4" transform="matrix(4.753426e-02 0.9989 -0.9989 4.753426e-02 89.9813 -34.9013)" fill="#FFFFFF" width="1.5" height="8.8"/>
		</g>
	</g>
	<g>
		<g>
			<polygon fill="#FFFFFF" points="72.9,36.8 70.1,19.5 87.4,18 88.4,35.7 86.9,35.8 86,19.6 71.8,20.9 74.4,36.5 			"/>
		</g>
		<g>
			<path fill="#FFFFFF" d="M77.2,39.7C77.2,39.7,77.2,39.7,77.2,39.7c-2.2,0-4.1-1.4-4.3-3.3c-0.2-2.1,1.6-4,4-4.3
				c2.5-0.3,4.7,1.2,4.9,3.3c0.2,2.1-1.6,4-4,4.3C77.6,39.7,77.4,39.7,77.2,39.7z M77.5,33.6c-0.1,0-0.3,0-0.4,0
				c-1.6,0.2-2.9,1.4-2.7,2.6c0.1,1.1,1.3,2,2.8,2c0,0,0,0,0,0c0.1,0,0.3,0,0.4,0c1.6-0.2,2.9-1.4,2.7-2.6
				C80.2,34.5,79,33.6,77.5,33.6z"/>
		</g>
		<g>
			<path fill="#FFFFFF" d="M91.1,38.5L91.1,38.5c-2.2,0-4.1-1.4-4.3-3.3c-0.2-2.1,1.6-4,4-4.3c2.5-0.3,4.7,1.2,4.9,3.3
				c0.2,2.1-1.6,4-4,4.3C91.5,38.4,91.3,38.5,91.1,38.5z M91.5,32.3c-0.1,0-0.3,0-0.4,0c-1.6,0.2-2.9,1.4-2.7,2.6
				c0.1,1.1,1.3,2,2.8,2l0,0c0.1,0,0.3,0,0.4,0c1.6-0.2,2.9-1.4,2.7-2.6C94.1,33.2,92.9,32.3,91.5,32.3z"/>
		</g>
		<g>
			
				<rect x="78.9" y="16.5" transform="matrix(6.643259e-02 0.9978 -0.9978 6.643259e-02 98.1652 -57.1165)" fill="#FFFFFF" width="1.5" height="14.9"/>
		</g>
	</g>
	<g>
		<g>
			<g>
				<path fill="#FFFFFF" d="M423.8,50.3l-0.6-4c0-1.6-1.3-2.9-2.9-2.9h-25.8c-1.6,0-2.9,1.3-2.9,2.9v3.7h-1.5v-3.7
					c0-2.4,2-4.4,4.4-4.4h25.8c2.4,0,4.4,1.9,4.4,4.3l0.6,3.8L423.8,50.3z"/>
			</g>
			<g>
				<path fill="#FFFFFF" d="M427.5,50l-1.5-0.1c0.3-3.7,0.2-8.3-3.5-11.6c-7.1-6.9-22.6-6.9-29.6,0c-2.4,2.2-3.6,5.2-3.6,9.2l-1.5,0
					c0-4.5,1.4-7.9,4.1-10.3c7.5-7.4,24.1-7.4,31.7,0C427.7,40.9,427.8,46.3,427.5,50z"/>
			</g>
			<g>
				<path fill="#FFFFFF" d="M406.8,103.7c-8.3,0-10.9-9.4-10.9-9.5c-0.2-1.3-0.3-3.6-0.5-6c-0.1-2.1-0.3-4.3-0.5-5.5
					c-2.3-1.5-3.8-3.7-4-5.6l-0.6-5.1l1.5-0.2l0.6,5.1c0.1,1.5,1.6,3.4,3.6,4.7l0.3,0.2l0,0.3c0.2,1.2,0.3,3.6,0.5,6
					c0.2,2.3,0.3,4.7,0.5,5.8c0.1,0.3,2.3,8.3,9.4,8.3c7-0.3,10.8-7.5,11.2-8.5c0.2-1.2,0.3-3.5,0.5-5.7c0.2-2.4,0.3-4.7,0.5-5.9
					l0-0.3l0.3-0.2c2-1.3,3.4-3.2,3.6-4.6c0.2-1.8,0.4-3.6,0.6-5.3l1.5,0.2c-0.2,1.8-0.4,3.5-0.6,5.3c-0.1,1.8-1.7,4-4,5.5
					c-0.1,1.2-0.3,3.4-0.5,5.5c-0.2,2.4-0.3,4.8-0.5,6l-0.1,0.2C419.2,94.7,415.1,103.4,406.8,103.7z"/>
			</g>
			<g>
				<polygon fill="#FFFFFF" points="403.2,86.7 395,82.7 395.7,81.3 403.5,85.2 416,84.7 416,86.2 				"/>
			</g>
			<g>
				<path fill="#FFFFFF" d="M413.1,69.2L413.1,69.2c-2,0-4-0.6-5.5-1.7c-1.6,1-3.4,1.7-5.3,1.8l-3.7,0.1c-2.7,0-5.2-1.1-7-3
					c-1.5-1.6-2.3-3.7-2.2-5.9c0-0.6,0-1.3,0.1-2l0-0.5c0.1-4.7,0.1-5.8,0.2-6.1l0.1-0.4l0.4-0.1c3-1,10.6-1.3,16.7-1.3
					c6.7,0,15,0.4,18.3,1.6l0.4,0.1l0.1,0.4c0.1,0.3,0.1,1.9,0.2,5.7l0,0.8c0,0.6,0,1.3,0.1,2c0.1,2-0.6,3.9-2.1,5.5
					c-1.7,1.9-4.3,3-7.1,3.1L413.1,69.2z M391.1,52.6c0,0.7-0.1,2.2-0.1,5.4l0,0.5c0,0.7-0.1,1.4-0.1,2c-0.1,1.8,0.6,3.4,1.8,4.8
					c1.5,1.6,3.6,2.5,5.9,2.5l3.6,0c1.8-0.1,3.5-0.7,4.9-1.7l0.5-0.3l0.5,0.4c1.4,1.1,3.2,1.7,5.1,1.8l3.6,0c2.3-0.1,4.5-1.1,6-2.7
					c1.2-1.3,1.8-2.9,1.7-4.5c0-0.7,0-1.3-0.1-2l0-0.8c0-1-0.1-3.9-0.1-5c-2.9-0.8-9.6-1.3-17.4-1.3C399.8,51.5,393.8,52,391.1,52.6
					z"/>
			</g>
			<g>
				<path fill="#FFFFFF" d="M421.3,55.9c-0.1,0-9.9-0.6-13.2-0.6c-3.2,0-12.9,0.6-13,0.6l-0.1-1.5c0.4,0,9.9-0.6,13.1-0.6
					c3.3,0,12.9,0.6,13.3,0.6L421.3,55.9z"/>
			</g>
		</g>
	</g>
	<g>
		<g>
			<g>
				<path fill="#FFFFFF" d="M431.4,67.6h-1.5V50c0-2.3-0.4-4.5-1.3-6.6l1.4-0.6c0.9,2.3,1.4,4.7,1.4,7.1V67.6z"/>
			</g>
			<g>
				<path fill="#FFFFFF" d="M385.4,72.5c-0.5-1.4-0.7-3.1-0.7-4.9V50c0-2.3,0.4-4.5,1.2-6.6l1.4,0.5c-0.7,1.9-1.1,4-1.1,6.1v17.5
					c0,1.6,0.2,3.1,0.7,4.4L385.4,72.5z"/>
			</g>
			<g>
				<g>
					<path fill="#FFFFFF" d="M386.5,71.4c-3.9,0-7-3-7-6.8v-7.4c0-3.7,3.1-6.8,7-6.8v1.5c-3,0-5.5,2.4-5.5,5.3v7.4
						c0,2.9,2.5,5.3,5.5,5.3V71.4z"/>
				</g>
				<g>
					<path fill="#FFFFFF" d="M390,72.9h-2.3c-1.6,0-2.8-1.2-2.8-2.8V51.7c0-1.5,1.3-2.8,2.8-2.8h2.3c1.2,0,2.3,0.7,2.7,1.9l-1.4,0.5
						c-0.2-0.5-0.7-0.9-1.3-0.9h-2.3c-0.7,0-1.3,0.6-1.3,1.3v18.4c0,0.7,0.6,1.3,1.3,1.3h2.3c0.7,0,1.3-0.6,1.3-1.3v-4h1.5v4
						C392.9,71.7,391.6,72.9,390,72.9z"/>
				</g>
			</g>
			<g>
				<g>
					<path fill="#FFFFFF" d="M429.8,71.5V70c3,0,5.5-2.4,5.5-5.3v-7.5c0-2.9-2.5-5.3-5.5-5.3v-1.5c3.9,0,7,3,7,6.8v7.5
						C436.8,68.4,433.6,71.5,429.8,71.5z"/>
				</g>
				<g>
					<path fill="#FFFFFF" d="M428.6,72.9h-2.3c-1.6,0-2.8-1.2-2.8-2.8v-5.5h1.5v5.5c0,0.7,0.6,1.3,1.3,1.3h2.3
						c0.7,0,1.3-0.6,1.3-1.3V51.7c0-0.7-0.6-1.3-1.3-1.3h-2.3c-0.7,0-1.3,0.6-1.3,1.3h-1.5c0-1.5,1.3-2.8,2.8-2.8h2.3
						c1.6,0,2.8,1.2,2.8,2.8v18.4C431.4,71.7,430.2,72.9,428.6,72.9z"/>
				</g>
			</g>
		</g>
		<g>
			<g>
				<path fill="#FFFFFF" d="M429,44.2L429,44.2c-1.2,0-2.2-0.4-2.9-1.3c-4-6.2-10.9-9.8-18.5-9.8c-7.5,0-14.4,3.7-18.4,9.8
					c-0.6,0.9-1.7,1.5-2.8,1.5c-0.6,0-1.3-0.2-1.8-0.5c-0.8-0.5-1.3-1.2-1.5-2.1c-0.2-0.9,0-1.7,0.5-2.5c5.3-8,14.3-12.7,24.1-12.7
					c9.9,0,19,4.9,24.2,13c0.5,0.7,0.6,1.6,0.4,2.5c-0.2,0.9-0.7,1.4-1.5,1.9C430.3,44.2,429.7,44.2,429,44.2z M407.7,31.6
					c8.1,0,15.5,4,19.8,10.6c0.5,0.8,1.7,1.1,2.6,0.6c0.4-0.3,0.7-0.7,0.8-1.1c0.1-0.4,0-0.9-0.2-1.3c-5-7.7-13.6-12.3-23-12.3
					c-9.3,0-17.8,4.5-22.8,12.1c-0.3,0.4-0.3,0.9-0.2,1.3c0.1,0.5,0.4,0.9,0.8,1.1c0.8,0.5,2.1,0.3,2.6-0.5
					C392.3,35.5,399.7,31.6,407.7,31.6z"/>
			</g>
		</g>
	</g>
	<g>
		<path fill="#FFFFFF" d="M449.5,110.9c0-0.1-3.1-8.4-12.3-15.7c-9.1-7.2-18-4.9-18.1-4.9l-0.4-1.4c0.4-0.1,9.7-2.5,19.4,5.1
			c9.6,7.5,12.6,16,12.7,16.3L449.5,110.9z"/>
	</g>
	<g>
		<path fill="#FFFFFF" d="M365.7,110.9l-1.4-0.5c0.1-0.4,3.2-8.8,12.7-16.3c9.7-7.6,19-5.2,19.4-5.1l-0.4,1.4c-0.1,0-9-2.3-18.1,4.9
			C368.8,102.5,365.7,110.9,365.7,110.9z"/>
	</g>
	<g>
		<g>
			<rect x="138.8" y="64.4" fill="#FFFFFF" width="23" height="1.5"/>
		</g>
		<g>
			<polygon fill="#FFFFFF" points="156.4,71.6 155.4,70.5 160.7,65.2 155.4,59.9 156.4,58.8 162.8,65.2 			"/>
		</g>
	</g>
	<g>
		<g>
			<rect x="311.7" y="64.4" fill="#FFFFFF" width="23" height="1.5"/>
		</g>
		<g>
			<polygon fill="#FFFFFF" points="329.4,71.6 328.3,70.5 333.6,65.2 328.3,59.9 329.4,58.8 335.7,65.2 			"/>
		</g>
	</g>
	<g>
		<g>
			<g>
				<g>
					<path fill="#FFFFFF" d="M272.8,86.8h-1.5V53.6c0-1.1-0.9-1.9-1.9-1.9h-19.4v-1.5h19.4c1.9,0,3.4,1.5,3.4,3.4V86.8z"/>
				</g>
				<g>
					<path fill="#FFFFFF" d="M210.2,86.8h-1.5V53.6c0-1.9,1.5-3.4,3.4-3.4h18.6v1.5h-18.6c-1.1,0-1.9,0.9-1.9,1.9V86.8z"/>
				</g>
				<g>
					<path fill="#FFFFFF" d="M268.6,93.8h-55.6c-3.6,0-10-0.3-13-2.5l-7.3-5.3h96.2l-7.3,5.3C278.5,93.4,272.1,93.8,268.6,93.8z
						 M197.3,87.4l3.5,2.6c2.9,2.1,10,2.2,12.1,2.2h55.6c2.1,0,9.3-0.2,12.1-2.2l3.5-2.6H197.3z"/>
				</g>
			</g>
			<g>
				<defs>
					<polygon id="SVGID_1_" points="268.2,84.7 213.3,84.7 213.3,54.7 231.3,54.7 231.3,56.2 214.8,56.2 214.8,83.2 266.7,83.2 
						266.7,56.2 250.1,56.2 250.1,54.7 268.2,54.7 					"/>
				</defs>
				<use xlink:href="#SVGID_1_"  overflow="visible" fill="#FFFFFF"/>
				<clipPath id="SVGID_2_">
					<use xlink:href="#SVGID_1_"  overflow="visible"/>
				</clipPath>
			</g>
		</g>
		<g>
			<path fill="#FFFFFF" d="M250.9,64.5h-20.4V45.3h-7.2l17.4-17l17.4,17h-7.2V64.5z M232.1,63h17.4V43.8h5l-13.7-13.4L227,43.8h5V63
				z"/>
		</g>
		<g>
			<rect x="236" y="88.5" fill="#FFFFFF" width="9.4" height="1.5"/>
		</g>
	</g>
</g>
</svg>
